#!OML:ASF F:\VICON\USERDATA\INSTALL\rory3\rory3.ASF
:FULLY-SPECIFIED
:DEGREES
115
root 0.5314840836963617 17.6593407841811 40.59544570186461 2.033332845978383 1.952548865761755 0.053887556697907346
lfemur -10.738010082080187 -0.41463085112135056 -23.18189718496389
ltibia 38.729934645785924
lfoot 4.926135343435268 -11.04335739434448
ltoes -8.439086832048714
rfemur -24.420926888866028 2.564825150751203 26.406057031863746
rtibia 54.043824024546076
rfoot 0.3633692397556825 -5.271020853045311
rtoes -4.5868334837713265
lowerback 12.949935532372484 -0.6315341523902808 -1.2833181700239724
upperback -0.5378177417323754 -0.038303006079573265 0.7875191865957969
thorax -8.224351947489506 0.5710467610116003 1.777861276043325
lowerneck -18.84603156092017 -3.486254792833395 -2.393221182092815
upperneck 14.084836504602595 -4.637709121199452 2.779203572661528
head 7.437912388574915 -2.4178125695604624 0.7845558216942787
lclavicle 3.0724827264545893e-16 -4.3067221206564905e-16
lhumerus -42.61155927418374 -15.876993242978566 98.0891026952958
lradius 109.68708414963338
lwrist 32.17847940432047
lhand -25.743357468153086 3.099939758656566
lfingers 7.125020000000001
lthumb 0.4158321463125165 32.77051040616985
rclavicle 3.0728743657241976e-16 -4.3064985682852227e-16
rhumerus -49.13551188028943 8.030173257924352 -97.149146424775
rradius 103.28025026653602
rwrist -19.30661713747417
rhand -18.479319738632228 37.46815111890065
rfingers 7.125020000000001
rthumb 7.939734579258574 7.511737319569901
116
root 0.5440476107212262 17.705184395276245 40.57732409290884 2.1514238471083473 1.740704900744816 0.04659186192068243
lfemur -9.146463410442276 -0.08185204018094383 -22.413096126289677
ltibia 40.97946866720731
lfoot 3.3555829398015673 -10.271962754597226
ltoes -8.05710930529532
rfemur -25.71605888592643 2.344749067534729 25.83026126584895
rtibia 52.975203801934754
rfoot 0.716050141068689 -4.914747808942229
rtoes -5.037641312921609
lowerback 12.82741761455517 -0.7158310802294473 -1.3060443366195342
upperback -0.5915692041503612 -0.2613074431490179 0.8446455465480043
thorax -8.276692281866573 0.4726238518733876 1.8354542589892993
lowerneck -18.773398755612117 -3.4353191595156805 -2.402551952724357
upperneck 14.10781433766052 -4.602171991688543 2.7681949622844177
head 7.445549788822855 -2.36739093251146 0.7867532249306368
lclavicle 3.0724827264545893e-16 -4.3067221206564905e-16
lhumerus -41.95422433241284 -15.560519560438918 98.20724913002185
lradius 109.97207661617921
lwrist 32.284982473009826
lhand -25.769848718314766 3.0111062254001535
lfingers 7.125020000000001
lthumb 0.38486870443358956 32.73254635830256
rclavicle 3.0728743657241976e-16 -4.3064985682852227e-16
rhumerus -50.06560415268511 7.839703734698485 -97.1171802025375
rradius 103.30964541241755
rwrist -19.37075113974581
rhand -18.484630432909967 37.45851634781906
rfingers 7.125020000000001
rthumb 7.9187341023981235 7.485110660904435
117
root 0.5777333185321089 17.810829610265976 43.15435937317986 2.424331577379998 1.995823157895403 0.30098933897689584
lfemur -8.780363579224844 -0.20014785401229696 -22.72150516568264
ltibia 43.54609328271132
lfoot 1.7435367804721191 -9.447809428133198
ltoes -7.58298426966444
rfemur -25.580752942886356 2.4916772674987846 26.114442668845815
rtibia 51.804081052423
rfoot 0.5499624932705646 -4.831387601186968
rtoes -4.756113723843907
lowerback 12.743222242433953 -0.7615927368406311 -1.219493951021026
upperback -0.5966269941661067 -0.2545477765549691 1.0142084861297591
thorax -8.185658915179266 0.5422183620998848 2.136495317297955
lowerneck -18.73160130252997 -3.422764559084025 -2.419324587076893
upperneck 14.172544710875218 -4.523006746970531 2.7708572402538882
head 7.44503889914216 -2.3327796972448533 0.7821144482171951
lclavicle 3.0724827264545893e-16 -4.3067221206564905e-16
lhumerus -42.760130528458774 -15.596370504697271 98.0578170805238
lradius 110.20397721863719
lwrist 32.2913906150525
lhand -25.730462509066477 3.0061828875755197
lfingers 7.125020000000001
lthumb 0.39498387240302146 32.7430884475996
rclavicle 3.0728743657241976e-16 -4.3064985682852227e-16
rhumerus -51.06358493927146 7.615151313629245 -97.05434926813535
rradius 103.26077087766538
rwrist -19.455916785082263
rhand -18.444870176390527 37.51628645981269
rfingers 7.125020000000001
rthumb 7.922202938534506 7.510362197685399
118
root 0.5858138547765361 17.843516681565184 42.33470916053431 2.4422679069885396 1.7752668347075193 0.22991436907921936
lfemur -8.904948884275328 -0.064839322704211 -22.370426679512374
ltibia 46.11159796572696
lfoot 0.5050162198198012 -9.118492511185792
ltoes -7.425974787913014
rfemur -24.350257474659173 2.914088881805962 26.561916085242192
rtibia 51.26365442242539
rfoot -0.2806796473054566 -4.972167784208413
rtoes -4.340460818319831
lowerback 12.662523317344858 -0.8183972421314839 -1.118332498844966
upperback -0.5794765772560269 -0.13141437769653952 1.2221681594305767
thorax -8.22738380340288 0.48156728534369236 2.119103925340708
lowerneck -18.687218827097272 -3.4070938923624094 -2.416018301103006
upperneck 14.2330521271296 -4.4391718385817835 2.7730776034839404
head 7.44095048583853 -2.3196341590164686 0.7713859977891311
lclavicle 3.0724827264545893e-16 -4.3067221206564905e-16
lhumerus -43.06900094977338 -15.546541171493466 98.08100040455021
lradius 109.8495364820384
lwrist 32.37592999996336
lhand -25.723128444399045 3.013955737826235
lfingers 7.125020000000001
lthumb 0.41203532108193774 32.73776166881304
rclavicle 3.0728743657241976e-16 -4.3064985682852227e-16
rhumerus -51.8003355851441 7.4132048096461505 -96.92495709026981
rradius 103.09801557284959
rwrist -19.443454032707045
rhand -18.470212925282933 37.49896668781428
rfingers 7.125020000000001
rthumb 7.854364240343134 7.449797813869342
119
root 0.6099820437365422 17.913994987816476 43.801469965398766 2.5970165868544197 1.9049994148172122 0.4152329917456292
lfemur -9.798014620673868 -0.09536004203755644 -22.414720464811708
ltibia 48.8112115505781
lfoot 0.4252567707667039 -8.944452294296466
ltoes -7.836761885046082
rfemur -24.284117911405232 3.122906391054471 26.733056043933345
rtibia 51.03428128033214
rfoot -1.3738428280363788 -5.168834117797509
rtoes -4.044807186954852
lowerback 12.633978757021712 -0.8505371595247787 -0.943917436865721
upperback -0.5793170514387244 -0.08506109761499547 1.3734008182027955
thorax -8.211060962689386 0.4854361135277018 2.135923278538692
lowerneck -18.66915448956163 -3.3832516433351634 -2.405051338744851
upperneck 14.25073397676648 -4.3660479800965675 2.7665354799910706
head 7.441351733953883 -2.3051819609387927 0.7652576294850995
lclavicle 3.0724827264545893e-16 -4.3067221206564905e-16
lhumerus -43.379455138670764 -15.515562969679209 98.1053035478605
lradius 109.43739256415157
lwrist 32.29789357130541
lhand -25.714147681940787 3.0282177540480952
lfingers 7.125020000000001
lthumb 0.41263514032140786 32.62985987044251
rclavicle 3.0728743657241976e-16 -4.3064985682852227e-16
rhumerus -52.490510398776024 7.198844080213662 -96.78524945332657
rradius 102.9543138747787
rwrist -19.35351578414704
rhand -18.469819610090386 37.491433269239025
rfingers 7.125020000000001
rthumb 7.943852146601145 7.623849008328458
